<?xml version="1.0" encoding="UTF-8"?>
<svg id="Layer_2" data-name="Layer 2" xmlns="http://www.w3.org/2000/svg" xmlns:xlink="http://www.w3.org/1999/xlink" viewBox="0 0 967.29 885.9">
  <defs>
    <style>
      .cls-1 {
        fill: url(#linear-gradient);
      }

      .cls-1, .cls-2, .cls-3, .cls-4, .cls-5, .cls-6, .cls-7, .cls-8, .cls-9, .cls-10 {
        stroke-width: 0px;
      }

      .cls-2 {
        fill: url(#linear-gradient-6);
      }

      .cls-3 {
        fill: url(#linear-gradient-5);
      }

      .cls-11 {
        fill: #70cbd2;
        font-family: CooperBlack, 'Cooper Black';
        font-size: 127.18px;
      }

      .cls-4 {
        fill: url(#linear-gradient-2);
      }

      .cls-5 {
        fill: url(#linear-gradient-7);
      }

      .cls-6 {
        fill: url(#linear-gradient-3);
      }

      .cls-7 {
        fill: url(#linear-gradient-9);
      }

      .cls-8 {
        fill: url(#linear-gradient-8);
      }

      .cls-9 {
        fill: url(#linear-gradient-10);
      }

      .cls-10 {
        fill: url(#linear-gradient-4);
      }
    </style>
    <linearGradient id="linear-gradient" x1="130.36" y1="572.44" x2="842.45" y2="572.44" gradientUnits="userSpaceOnUse">
      <stop offset="0" stop-color="#0095f3"/>
      <stop offset="1" stop-color="#00fef0"/>
    </linearGradient>
    <linearGradient id="linear-gradient-2" x1="222.44" y1="451.2" x2="430.44" y2="451.2" xlink:href="#linear-gradient"/>
    <linearGradient id="linear-gradient-3" x1="430.44" y1="661.13" x2="755.46" y2="661.13" xlink:href="#linear-gradient"/>
    <linearGradient id="linear-gradient-4" x1="215.46" y1="630.9" x2="595.81" y2="630.9" xlink:href="#linear-gradient"/>
    <linearGradient id="linear-gradient-5" x1="224.71" y1="630.55" x2="661.15" y2="630.55" gradientUnits="userSpaceOnUse">
      <stop offset=".19" stop-color="#00fef0"/>
      <stop offset=".48" stop-color="#0095f3"/>
    </linearGradient>
    <linearGradient id="linear-gradient-6" x1="519.25" y1="448.2" x2="753.75" y2="448.2" xlink:href="#linear-gradient"/>
    <linearGradient id="linear-gradient-7" x1="340.61" y1="294.53" x2="629.43" y2="294.53" xlink:href="#linear-gradient"/>
    <linearGradient id="linear-gradient-8" x1="340.61" y1="278.61" x2="629.43" y2="278.61" xlink:href="#linear-gradient"/>
    <linearGradient id="linear-gradient-9" x1="130.36" y1="510.91" x2="842.45" y2="510.91" gradientTransform="translate(264.93 -157.75) rotate(25.32)" xlink:href="#linear-gradient"/>
    <linearGradient id="linear-gradient-10" x1="130.36" y1="286.23" x2="842.45" y2="286.23" xlink:href="#linear-gradient"/>
  </defs>
  <g id="Layer_3" data-name="Layer 3">
    <g>
      <g>
        <path class="cls-1" d="M835.8,529.82l-50.89-27.55c-4.98-68.54-32.87-130.7-75.98-178.96l7.03-23.62-23.18,6.89c-15.05-14.44-31.61-27.34-49.39-38.43-.89,12.6-3.24,24.75-6.86,36.35,69.53,48.4,115.06,128.92,115.06,220.06,0,147.97-119.98,267.95-267.95,267.95s-267.95-119.98-267.95-267.95c0-91.14,45.53-171.66,115.06-220.06-3.62-11.61-5.97-23.76-6.86-36.35-14.75,9.18-28.6,19.59-41.51,31.13l-23.62-7.03,6.89,23.18c-44.85,46.73-74.82,107.86-82.26,175.79l-51.92,28.09,50.89,27.55c4.98,68.54,32.87,130.7,75.98,178.96l-7.03,23.62,23.18-6.89c46.73,44.85,107.86,74.82,175.79,82.26l28.09,51.92,27.55-50.89c68.54-4.98,130.7-32.87,178.96-75.98l23.62,7.03-6.89-23.18c44.85-46.73,74.82-107.86,82.26-175.79l51.92-28.09Z"/>
        <g>
          <path class="cls-4" d="M430.44,468.33h-208.01c2.74-11.74,6.28-23.18,10.54-34.26,1.99.68,3.36,2.68,3.79,4.74.48,2.2.1,4.48-.27,6.69,3.8-1.01,7.07-.36,9.78,2.45,2.71,2.82,3.69,7.13,2.46,10.82,2.4-2.44,7-1.54,8.4,1.57,3.45-2.49,8.82-1.81,11.52,1.45,3.36-5.18,9.45-8.86,15.67-9.23,6.22-.37,12.55,2.36,16.5,7.11-2.83-5.6-.51-12.57,4.34-16.61,4.85-4.03,12.02-4.84,17.96-2.66,5.94,2.18,10.65,7.06,13.32,12.74.12-1.9,1-2.51,2.86-3.01,1.87-.5,4.01.28,5.08,1.86,3.02-3.55,8.47-4.85,12.81-3.06,4.33,1.78,7.22,6.52,6.79,11.13,3.98-2.13,10.29-.08,11.73,4.15,7.54-3.13,17.23-2.85,24.19,1.39,3.05-4.14,8.89-4.76,14.02-4.01,5.13.75,9.8,3.29,14.32,5.79.75.41,1.47.71,2.19.95Z"/>
          <path class="cls-6" d="M618.31,763.62h-.01l-187.86,8.86,4.16-43.08,3.01-31.15,37.21-6.4,5.19-.89,32.68-5.63,2.75-.47,5.12-2.85,27.64-15.4.18-.06,5.16-1.8,3.98-1.38,11.09-3.85,28.39-9.86,1.95-.68,15.82-5.49,16.38-25.56,46.08-13.39,21.5-24.33,52.23-30.43,4.49,22.56c-10.38,62.7-42.83,118.09-89.25,158.15-6.51,5.63-13.28,10.94-20.32,15.92,0,.01-.01.01-.01.01-4.52,3.23-9.16,6.31-13.9,9.24l.03.06-.08-.02c-3.16,1.97-6.37,3.87-9.63,5.71"/>
          <path class="cls-10" d="M233.86,625.94l-2.6-6.86c-10.23-28.2-15.8-58.57-15.8-90.23,0-.8,0-1.6.02-2.4l40.29,18.37.99.45,27.17,24.06,14.17,3.22,28.48,6.47,15.58,3.54,17.98,21.95h0s2.72,3.32,2.72,3.32l13.07,3.55,6.09,1.65h.01l.24.07,13.37,3.64h0l33.66,9.14,17.67,4.8,14.79,6.45,21.41,9.33,5.21,2.27,16.59,2.23,16.95,2.28,33.43,4.5h.01l13.23,1.78,18.14,2.44,1.36,11.02h0s7.7,62.37,7.7,62.37l-22.46-.83-6.97-.26-131.78-4.86-133.04-4.9c-26.15-24.12-47.46-53.29-62.34-85.92-1.9-4.15-3.68-8.37-5.37-12.64"/>
          <path class="cls-3" d="M622.31,761.41l-5.37-9.82,14.99,4.11.08.02-.03-.06-25.09-58.13,12.13,4.12-20.07-52.67-.84-2.21-1.11,2.89-8.9,23.32h0s-10.93,28.67-10.93,28.67l12.15-4.12-15.98,36.99-3.01,6.98-3.96-7.24-9.73-17.79,15.07,4.13-23.34-54.05-1.79-4.15,6.95,2.35,5.17,1.76-1.2-3.14-2.14-5.63h-.01l-17.56-46.09-15.87,41.59-5.06,13.27,12.14-4.11-8.46,19.61-8.38,19.41-6.46-11.82,9.99,2.74-3.02-7.01-13.63-31.56,8.04,2.72-2.11-5.53-11.76-30.84-10.05,26.34-3.82,10.03,8.05-2.72-14.75,34.15-10.71-19.59,15.07,4.13-15.26-35.33-9.87-22.87,12.13,4.12-20.92-54.87-20.94,54.87,12.14-4.12-5.01,11.62-18.16,42.06-10.49-19.18,9.99,2.74-15-34.76h0l-1.64-3.82,8.04,2.73-13.87-36.37-12.24,32.1-1.63,4.27,7.72-2.62h.01l.32-.11-.08.18-11.31,26.22-20.47-37.45,9.65,2.64h0s.34.1.34.1l-16.66-38.57,8.04,2.73-13.87-36.38-13.88,36.38,8.04-2.73-5.6,12.98-11.01,25.49-17.48-31.96-1.87-3.42,15.07,4.13-25.12-58.2,12.13,4.12-19.38-50.85-1.53-4.02-1.53,4.02-19.4,50.85,12.15-4.12-12.85,29.76-12.27,28.44,15.07-4.13-27.31,49.95-1.07,1.97c-1.37,2.51.84,5.45,3.67,4.89h0s11.73-2.32,11.73-2.32l-6.36,14.96c14.88,32.63,36.19,61.8,62.34,85.92,48.59,44.85,113.89,72.3,185.68,72.3,47.52,0,92.19-12.03,131.06-33.18h.01M480.75,689.6l-.74,1.36-2.84,5.2-2.35-4.31-.29-.54,6.23-1.71ZM424.27,668.33l-6.45,11.81-4.78-8.73,11.23-3.08ZM370.57,640.25l-4.86,11.25,9.99-2.74-6.77,12.37-9.83-23.14,11.46,2.26ZM325.53,601.87l-5.7,10.42-4.21-7.7,9.91-2.72ZM659.09,711.82l-13.2,34.59c7.04-4.98,13.8-10.29,20.32-15.92l-7.12-18.67Z"/>
          <path class="cls-2" d="M753.75,442.42v25.91h-234.5c4.5-1.52,8.66-3.82,13.89-5.23,6.23-1.68,13.13-.76,18.66,2.5-1.95-4.7.76-10.63,5.03-13.48,4.26-2.85,10.53-2.31,14.24,1.21-1.38-8.42,3-17.96,10.97-21.28,7.97-3.33,18.08-.62,23.25,6.22.01-.57.94-.82.96-1.39,4.15-1.31,9.08.41,11.47,3.99,1.48-5.42,6.89-9.48,12.57-9.14,5.69.33,10.82,3.74,14.45,8.07,3.63,4.33,5.98,9.54,8.29,14.67.17-3.38,2.72-5.68,5.92-6.91,3.2-1.22,6.82-.96,10.11-.01,5.19,1.48,9.88,4.62,13.18,8.84,2.79-1.77,7.51-1.77,9.24,1.02,1.31-5.45,2.84-11.68,5.44-16.65,2.6-4.98,6.63-9.45,11.93-11.46,5.38-2.05,11.54-1.35,16.84.89s9.85,5.9,14.05,9.8c1.01-.73,2.15-1.34,3.34-1.76,2.57-.91,5.36-.92,7.6.61,1.32.9,2.36,2.16,3.07,3.58Z"/>
        </g>
        <g>
          <path class="cls-5" d="M544.82,227.16l-60.92,65.53-41.53-33.86-50.38,49.09c1.14,2.04,2.34,4.03,3.6,5.97l46.78-45.42,27.43,21.32-22.06-11.17-10.05,11.66-1.02,11.08-10.05,9.34,5.86-8.65,1.01-7.5-28.19,32.08c19.26,21.67,47.33,35.3,78.61,35.3,54.6,0,99.5-41.6,104.7-94.83l-43.79-39.91ZM502.59,323.83l-28.03,3.46,20.07-10.73-10.73-16.27,43.96,38.76-25.27-15.23ZM515.87,312.6l5.58,12.78-9.4-8.47-23.06-20.07,56.07-60.46-16.39,30,3.24,28.15-16.03,18.08ZM548.86,247.52l-13.57,12.63,12.46-22.15,35.48,33.23-34.38-23.7Z"/>
          <path class="cls-8" d="M409.14,285.52l-19.29,18.37c-5.12-10.19-8.65-21.32-10.22-33.06l19.25,10.04-20.17-21.58h0c-.01-.87-.03-1.74-.03-2.62,0-1.12.01-2.24.06-3.36l30.4,32.2Z"/>
        </g>
        <circle class="cls-7" cx="483.65" cy="510.91" r="30.16" transform="translate(-172.03 255.89) rotate(-25.32)"/>
        <path class="cls-9" d="M483.65,115.82c-77.76,0-140.8,63.04-140.8,140.8,0,38.47,15.43,73.28,40.41,98.71l96.77,99.77c1.98,2.05,5.26,2.05,7.24,0l96.77-99.77c12.49-12.7,22.6-27.78,29.59-44.48,6.96-16.69,10.82-34.99,10.82-54.24,0-77.76-63.04-140.8-140.8-140.8ZM483.65,361.58c-57.96,0-104.96-47-104.96-104.96s47-104.96,104.96-104.96,104.96,47,104.96,104.96-47,104.96-104.96,104.96Z"/>
      </g>
      <text class="cls-11" transform="translate(156.42 696.19) rotate(-112.68) scale(.97 1)"><tspan x="0" y="0">D</tspan></text>
      <text class="cls-11" transform="translate(121.09 608.37) rotate(-101.43) scale(.97 1)"><tspan x="0" y="0">e</tspan></text>
      <text class="cls-11" transform="translate(108.79 547.37) rotate(-93.06) scale(.97 1)"><tspan x="0" y="0">s</tspan></text>
      <text class="cls-11" transform="translate(105.68 491.24) rotate(-85.3) scale(.97 1)"><tspan x="0" y="0">t</tspan></text>
      <text class="cls-11" transform="translate(110.37 437.01) rotate(-78.47) scale(.97 1)"><tspan x="0" y="0">i</tspan></text>
      <text class="cls-11" transform="translate(118.95 395.93) rotate(-73.37) scale(.97 1)"><tspan x="0" y="0"> </tspan></text>
      <text class="cls-11" transform="translate(127.26 367.91) rotate(-69.14) scale(.97 1)"><tspan x="0" y="0"> </tspan></text>
      <text class="cls-11" transform="translate(137.6 340.61) rotate(-64.9) scale(.97 1)"><tspan x="0" y="0"> </tspan></text>
      <text class="cls-11" transform="translate(149.93 314.16) rotate(-60.65) scale(.97 1)"><tspan x="0" y="0"> </tspan></text>
      <text class="cls-11" transform="translate(164.19 288.69) rotate(-56.38) scale(.97 1)"><tspan x="0" y="0"> </tspan></text>
      <text class="cls-11" transform="translate(180.29 264.36) rotate(-52.1) scale(.97 1)"><tspan x="0" y="0"> </tspan></text>
      <text class="cls-11" transform="translate(198.17 241.3) rotate(-47.8) scale(.97 1)"><tspan x="0" y="0"> </tspan></text>
      <text class="cls-11" transform="translate(217.71 219.65) rotate(-43.47) scale(.97 1)"><tspan x="0" y="0"> </tspan></text>
      <text class="cls-11" transform="translate(238.81 199.56) rotate(-39.11) scale(.97 1)"><tspan x="0" y="0"> </tspan></text>
      <text class="cls-11" transform="translate(261.39 181.12) rotate(-34.71) scale(.97 1)"><tspan x="0" y="0"> </tspan></text>
      <text class="cls-11" transform="translate(285.3 164.48) rotate(-30.26) scale(.97 1)"><tspan x="0" y="0"> </tspan></text>
      <text class="cls-11" transform="translate(310.4 149.76) rotate(-25.77) scale(.97 1)"><tspan x="0" y="0"> </tspan></text>
      <text class="cls-11" transform="translate(336.58 137.04) rotate(-21.25) scale(.97 1)"><tspan x="0" y="0"> </tspan></text>
      <text class="cls-11" transform="translate(363.64 126.45) rotate(-16.7) scale(.97 1)"><tspan x="0" y="0"> </tspan></text>
      <text class="cls-11" transform="translate(391.48 118.03) rotate(-12.13) scale(.97 1)"><tspan x="0" y="0"> </tspan></text>
      <text class="cls-11" transform="translate(419.9 111.85) rotate(-7.56) scale(.97 1)"><tspan x="0" y="0"> </tspan></text>
      <text class="cls-11" transform="translate(448.73 107.96) rotate(-3.02) scale(.97 1)"><tspan x="0" y="0"> </tspan></text>
      <text class="cls-11" transform="translate(477.69 106.37) rotate(1.45) scale(.97 1)"><tspan x="0" y="0"> </tspan></text>
      <text class="cls-11" transform="translate(506.86 107.04) rotate(5.99) scale(.97 1)"><tspan x="0" y="0"> </tspan></text>
      <text class="cls-11" transform="translate(535.8 110.01) rotate(10.55) scale(.97 1)"><tspan x="0" y="0"> </tspan></text>
      <text class="cls-11" transform="translate(564.39 115.26) rotate(15.11) scale(.97 1)"><tspan x="0" y="0"> </tspan></text>
      <text class="cls-11" transform="translate(592.47 122.78) rotate(19.67) scale(.97 1)"><tspan x="0" y="0"> </tspan></text>
      <text class="cls-11" transform="translate(619.89 132.51) rotate(24.21) scale(.97 1)"><tspan x="0" y="0"> </tspan></text>
      <text class="cls-11" transform="translate(646.47 144.39) rotate(28.71) scale(.97 1)"><tspan x="0" y="0"> </tspan></text>
      <text class="cls-11" transform="translate(672.02 158.32) rotate(33.17) scale(.97 1)"><tspan x="0" y="0"> </tspan></text>
      <text class="cls-11" transform="translate(696.46 174.22) rotate(37.59) scale(.97 1)"><tspan x="0" y="0"> </tspan></text>
      <text class="cls-11" transform="translate(719.57 191.94) rotate(41.97) scale(.97 1)"><tspan x="0" y="0"> </tspan></text>
      <text class="cls-11" transform="translate(741.3 211.4) rotate(46.31) scale(.97 1)"><tspan x="0" y="0"> </tspan></text>
      <text class="cls-11" transform="translate(761.49 232.45) rotate(50.62) scale(.97 1)"><tspan x="0" y="0"> </tspan></text>
      <text class="cls-11" transform="translate(780.06 254.98) rotate(54.91) scale(.97 1)"><tspan x="0" y="0"> </tspan></text>
      <text class="cls-11" transform="translate(796.88 278.81) rotate(59.17) scale(.97 1)"><tspan x="0" y="0"> </tspan></text>
      <text class="cls-11" transform="translate(811.89 303.85) rotate(63.43) scale(.97 1)"><tspan x="0" y="0"> </tspan></text>
      <text class="cls-11" transform="translate(825 329.93) rotate(67.67) scale(.97 1)"><tspan x="0" y="0"> </tspan></text>
      <text class="cls-11" transform="translate(838.39 354.44) rotate(76.8) scale(.97 1)"><tspan x="0" y="0">N</tspan></text>
      <text class="cls-11" transform="translate(859.32 448.26) rotate(88.16) scale(.97 1)"><tspan x="0" y="0">a</tspan></text>
      <text class="cls-11" transform="translate(861.23 514.93) rotate(96.63) scale(.97 1)"><tspan x="0" y="0">t</tspan></text>
      <text class="cls-11" transform="translate(854.71 568.99) rotate(103.49) scale(.97 1)"><tspan x="0" y="0">i</tspan></text>
      <text class="cls-11" transform="translate(846.39 609.17) rotate(111.58) scale(.97 1)"><tspan x="0" y="0">o</tspan></text>
      <text class="cls-11" transform="translate(821.22 674.87) rotate(122.41) scale(.97 1)"><tspan x="0" y="0">n</tspan></text>
    </g>
  </g>
</svg>